<svg xmlns="http://www.w3.org/2000/svg" width="656.963" height="137.681" viewBox="0 0 656.963 137.681">
  <g id="Group_264" data-name="Group 264" transform="translate(-215 -471.16)">
    <path id="Path_18" data-name="Path 18" d="M29.458,7.554A21.1,21.1,0,0,1,45.5,14.545a3.049,3.049,0,0,0,2.138,1.045,3.1,3.1,0,0,0,2.237-.814l1.1-1.027a3.043,3.043,0,0,0,.186-4.263A29.19,29.19,0,0,0,29.458,0,29.007,29.007,0,0,0,.1,29.284,28.974,28.974,0,0,0,29.458,58.5a29.185,29.185,0,0,0,21.7-9.486,3.047,3.047,0,0,0-.186-4.266l-1.1-1.022a3.115,3.115,0,0,0-2.237-.814A3.015,3.015,0,0,0,45.5,43.952a21.092,21.092,0,0,1-16.046,6.987c-12.389,0-21.729-9.31-21.729-21.655A21.251,21.251,0,0,1,29.458,7.554" transform="translate(215.077 471.16)" fill="#54bff5"/>
    <path id="Path_19" data-name="Path 19" d="M68.255,49.9H48.206V3.463A3.045,3.045,0,0,0,45.16.417H43.628a3.045,3.045,0,0,0-3.046,3.046V54.4a3.046,3.046,0,0,0,3.046,3.048H68.255A3.049,3.049,0,0,0,71.3,54.4v-1.46A3.048,3.048,0,0,0,68.255,49.9" transform="translate(245.786 471.476)" fill="#54bff5"/>
    <path id="Path_20" data-name="Path 20" d="M126.407,2.338A3.043,3.043,0,0,0,123.579.416h-1.315a3.048,3.048,0,0,0-2.831,1.922L99.191,53.28a3.04,3.04,0,0,0,2.828,4.168h1.607a3.044,3.044,0,0,0,2.831-1.922l16.464-41.531,16.462,41.531a3.046,3.046,0,0,0,2.833,1.922h1.6a3.04,3.04,0,0,0,2.831-4.168Z" transform="translate(290.082 471.475)" fill="#54bff5"/>
    <path id="Path_21" data-name="Path 21" d="M72.095,7.969H99.274a3.046,3.046,0,0,0,3.046-3.046V3.46A3.046,3.046,0,0,0,99.274.416H72.095A3.048,3.048,0,0,0,69.049,3.46V4.923a3.048,3.048,0,0,0,3.046,3.046" transform="translate(267.381 471.475)" fill="#54bff5"/>
    <path id="Path_22" data-name="Path 22" d="M99.283,13.629H72.095a3.047,3.047,0,0,0-3.046,3.046v1.46a3.048,3.048,0,0,0,3.046,3.048H99.283a3.046,3.046,0,0,0,3.046-3.048v-1.46a3.046,3.046,0,0,0-3.046-3.046" transform="translate(267.381 481.499)" fill="#54bff5"/>
    <path id="Path_23" data-name="Path 23" d="M99.283,28.552H72.095A3.047,3.047,0,0,0,69.049,31.6v1.46a3.048,3.048,0,0,0,3.046,3.048H99.283a3.046,3.046,0,0,0,3.046-3.048V31.6a3.046,3.046,0,0,0-3.046-3.046" transform="translate(267.381 492.819)" fill="#54bff5"/>
    <path id="Path_24" data-name="Path 24" d="M163.594,32.845a16.692,16.692,0,0,0,9.231-15.277c0-9.778-7.532-17.153-17.517-17.153H140.254a3.047,3.047,0,0,0-3.046,3.046V4.924a3.047,3.047,0,0,0,3.046,3.046h1.125c.047,0,.1,0,.139,0h13.789a9.534,9.534,0,0,1,9.89,9.6c0,5.6-4.191,9.671-9.962,9.671H141.794a3.044,3.044,0,0,0-3.044,3.042v1.463a3.038,3.038,0,0,0,3.044,3.048h12.273c.649,0,1.28,0,1.91-.018l11.417,21.079a3.046,3.046,0,0,0,2.677,1.6h1.753a3.044,3.044,0,0,0,2.677-4.5Z" transform="translate(319.087 471.474)" fill="#54bff5"/>
    <path id="Path_25" data-name="Path 25" d="M237.214,7.554a21.1,21.1,0,0,1,16.046,6.99,3.044,3.044,0,0,0,4.375.23l1.1-1.027a3.043,3.043,0,0,0,.186-4.263,29.424,29.424,0,0,0-51.061,19.8A29.423,29.423,0,0,0,258.919,49.01a3.047,3.047,0,0,0-.186-4.266l-1.1-1.022a3.08,3.08,0,0,0-2.237-.814,3.015,3.015,0,0,0-2.138,1.045,21.092,21.092,0,0,1-16.046,6.987c-12.389,0-21.729-9.31-21.729-21.655A21.251,21.251,0,0,1,237.214,7.554" transform="translate(372.683 471.16)" fill="#3380f5"/>
    <path id="Path_26" data-name="Path 26" d="M277.694,7.554a21.1,21.1,0,0,1,16.046,6.99,3.049,3.049,0,0,0,2.138,1.045,3.108,3.108,0,0,0,2.237-.814l1.1-1.027a3.043,3.043,0,0,0,.186-4.263,29.424,29.424,0,0,0-51.061,19.8A29.423,29.423,0,0,0,299.4,49.01a3.047,3.047,0,0,0-.186-4.266l-1.1-1.022a3.121,3.121,0,0,0-2.237-.814,3.015,3.015,0,0,0-2.138,1.045,21.1,21.1,0,0,1-16.046,6.987c-12.389,0-21.729-9.31-21.729-21.655A21.251,21.251,0,0,1,277.694,7.554" transform="translate(403.391 471.16)" fill="#3380f5"/>
    <path id="Path_27" data-name="Path 27" d="M341.4,24.143c-7.951-3.387-10.427-5.177-10.427-9.769,0-4.145,3.021-6.82,7.7-6.82,3.992,0,6.623,1.44,8.278,4.528a3.038,3.038,0,0,0,4.164,1.224l1.315-.73A3.045,3.045,0,0,0,353.644,8.5C350.772,3.019,345.456,0,338.669,0c-8.879,0-15.324,6.072-15.324,14.445,0,9.54,6.767,13.168,14.95,16.622,9.027,3.785,11.361,6.141,11.361,11.443,0,5.276-3.836,8.427-10.256,8.427-6.357,0-10.986-3.266-13.387-9.454a3.045,3.045,0,0,0-4.024-1.708l-1.388.586a3.046,3.046,0,0,0-1.683,3.834c3.253,9.087,10.715,14.3,20.481,14.3,10.7,0,17.882-6.422,17.882-15.984,0-10.837-7.2-14.735-15.884-18.369" transform="translate(456.798 471.16)" fill="#3380f5"/>
    <path id="Path_28" data-name="Path 28" d="M374.312,24.143c-7.951-3.387-10.427-5.174-10.427-9.769,0-4.145,3.025-6.82,7.7-6.82,3.989,0,6.623,1.44,8.278,4.528a3.043,3.043,0,0,0,4.164,1.229l1.315-.735A3.038,3.038,0,0,0,386.559,8.5C383.687,3.019,378.371,0,371.584,0,362.7,0,356.26,6.073,356.26,14.446c0,9.54,6.767,13.168,14.95,16.622,9.027,3.785,11.361,6.141,11.361,11.443,0,5.276-3.832,8.427-10.256,8.427-6.357,0-10.986-3.266-13.383-9.454a3.048,3.048,0,0,0-4.024-1.708l-1.388.586a3.045,3.045,0,0,0-1.686,3.834c3.25,9.085,10.715,14.3,20.481,14.3,10.7,0,17.881-6.422,17.881-15.984,0-10.837-7.2-14.735-15.884-18.369" transform="translate(481.768 471.16)" fill="#3380f5"/>
    <path id="Path_29" data-name="Path 29" d="M197.059,2.338A3.043,3.043,0,0,0,194.231.416h-1.319a3.043,3.043,0,0,0-2.828,1.922L169.84,53.28a3.04,3.04,0,0,0,2.828,4.168h1.611a3.039,3.039,0,0,0,2.828-1.922l16.468-41.531,16.462,41.531a3.044,3.044,0,0,0,2.83,1.922h1.611A3.04,3.04,0,0,0,217.3,53.28Z" transform="translate(343.677 471.475)" fill="#3380f5"/>
    <path id="Path_30" data-name="Path 30" d="M291.863,7.969h27.179a3.048,3.048,0,0,0,3.046-3.046V3.46A3.048,3.048,0,0,0,319.042.416H291.863a3.048,3.048,0,0,0-3.046,3.044V4.923a3.048,3.048,0,0,0,3.046,3.046" transform="translate(434.099 471.475)" fill="#3380f5"/>
    <path id="Path_31" data-name="Path 31" d="M319.05,13.629H291.865a3.048,3.048,0,0,0-3.049,3.046v1.46a3.048,3.048,0,0,0,3.049,3.048H319.05a3.049,3.049,0,0,0,3.046-3.048v-1.46a3.048,3.048,0,0,0-3.046-3.046" transform="translate(434.098 481.499)" fill="#3380f5"/>
    <path id="Path_32" data-name="Path 32" d="M319.05,28.552H291.865a3.048,3.048,0,0,0-3.049,3.046v1.46a3.048,3.048,0,0,0,3.049,3.048H319.05a3.049,3.049,0,0,0,3.046-3.048V31.6a3.048,3.048,0,0,0-3.046-3.046" transform="translate(434.098 492.819)" fill="#3380f5"/>
    <path id="Path_33" data-name="Path 33" d="M13.768,67.775A1.67,1.67,0,0,1,13.4,68.79a1.225,1.225,0,0,1-1.016.521,1.771,1.771,0,0,1-.841-.223,6.106,6.106,0,0,0-2.626-.568,6.037,6.037,0,0,0-3.021.73A4.948,4.948,0,0,0,3.913,71.3a6.439,6.439,0,0,0-.695,3.032A5.858,5.858,0,0,0,4.792,78.77,5.7,5.7,0,0,0,8.914,80.28a5.7,5.7,0,0,0,2.626-.57,1.988,1.988,0,0,1,.791-.2,1.362,1.362,0,0,1,1.09.543,1.608,1.608,0,0,1,.371,1.016,1.324,1.324,0,0,1-.2.718,1.286,1.286,0,0,1-.568.5,9.079,9.079,0,0,1-4.112.965,9.732,9.732,0,0,1-4.456-1.027A7.9,7.9,0,0,1,1.213,79.19,9.185,9.185,0,0,1,0,74.336,8.935,8.935,0,0,1,1.152,69.8a8.189,8.189,0,0,1,3.181-3.132,9.284,9.284,0,0,1,4.581-1.127A8.814,8.814,0,0,1,13,66.512a1.328,1.328,0,0,1,.769,1.263" transform="translate(215 520.882)" fill="#3380f5"/>
    <path id="Path_34" data-name="Path 34" d="M21.339,78.237A6.311,6.311,0,0,1,18.9,80.678a6.85,6.85,0,0,1-3.4.865,6.84,6.84,0,0,1-3.417-.865A6.323,6.323,0,0,1,9.65,78.237a7.526,7.526,0,0,1,0-7.107,6.415,6.415,0,0,1,2.427-2.453,7.055,7.055,0,0,1,6.822,0,6.4,6.4,0,0,1,2.441,2.453,7.526,7.526,0,0,1,0,7.107M18.75,72.516a3.743,3.743,0,0,0-1.361-1.474,3.72,3.72,0,0,0-3.79,0,3.747,3.747,0,0,0-1.363,1.474,4.544,4.544,0,0,0-.506,2.167,4.47,4.47,0,0,0,.506,2.154A3.76,3.76,0,0,0,13.6,78.3a3.709,3.709,0,0,0,3.79,0,3.756,3.756,0,0,0,1.361-1.461,4.471,4.471,0,0,0,.508-2.154,4.545,4.545,0,0,0-.508-2.167" transform="translate(221.644 522.591)" fill="#3380f5"/>
    <path id="Path_35" data-name="Path 35" d="M28.4,69.3a7.611,7.611,0,0,1,.965,4.147v6.34a1.49,1.49,0,0,1-.42,1.078,1.527,1.527,0,0,1-2.13,0,1.484,1.484,0,0,1-.422-1.078v-6.34a3.575,3.575,0,0,0-.568-2.14,2.266,2.266,0,0,0-1.957-.781,3.011,3.011,0,0,0-2.253.83,2.856,2.856,0,0,0-.818,2.091v6.34a1.49,1.49,0,0,1-.42,1.078,1.527,1.527,0,0,1-2.13,0,1.484,1.484,0,0,1-.422-1.078V69.557a1.48,1.48,0,0,1,.422-1.076,1.527,1.527,0,0,1,2.13,0,1.486,1.486,0,0,1,.42,1.076v.422a5.969,5.969,0,0,1,1.745-1.535,4.532,4.532,0,0,1,2.365-.645A3.835,3.835,0,0,1,28.4,69.3" transform="translate(228.524 522.591)" fill="#3380f5"/>
    <path id="Path_36" data-name="Path 36" d="M36.794,69.3a7.611,7.611,0,0,1,.965,4.147v6.34a1.49,1.49,0,0,1-.42,1.078,1.527,1.527,0,0,1-2.13,0,1.484,1.484,0,0,1-.422-1.078v-6.34a3.575,3.575,0,0,0-.568-2.14,2.266,2.266,0,0,0-1.957-.781,3.011,3.011,0,0,0-2.253.83,2.856,2.856,0,0,0-.818,2.091v6.34a1.49,1.49,0,0,1-.42,1.078,1.527,1.527,0,0,1-2.13,0,1.484,1.484,0,0,1-.422-1.078V69.557a1.48,1.48,0,0,1,.422-1.076,1.527,1.527,0,0,1,2.13,0,1.486,1.486,0,0,1,.42,1.076v.422a5.969,5.969,0,0,1,1.745-1.535A4.532,4.532,0,0,1,33.3,67.8a3.835,3.835,0,0,1,3.493,1.5" transform="translate(234.89 522.591)" fill="#3380f5"/>
    <path id="Path_37" data-name="Path 37" d="M46.348,75.327a1.572,1.572,0,0,1-1.039.371H37.136A3.732,3.732,0,0,0,38.5,77.989a3.818,3.818,0,0,0,2.4.83,5.333,5.333,0,0,0,1.585-.186,4.1,4.1,0,0,0,.906-.4c.222-.141.375-.236.457-.287a1.9,1.9,0,0,1,.842-.222,1.222,1.222,0,0,1,.892.371,1.188,1.188,0,0,1,.371.869,1.543,1.543,0,0,1-.695,1.212,5.873,5.873,0,0,1-1.857.965,7.686,7.686,0,0,1-5.979-.47,6.055,6.055,0,0,1-2.39-2.39,6.973,6.973,0,0,1-.842-3.429,7.586,7.586,0,0,1,.892-3.739,6.338,6.338,0,0,1,2.353-2.466,6.073,6.073,0,0,1,3.12-.855,5.781,5.781,0,0,1,3.083.892,6.7,6.7,0,0,1,2.316,2.4,6.451,6.451,0,0,1,.867,3.269,1.274,1.274,0,0,1-.471.965m-9.187-2.105h6.488v-.174a2.561,2.561,0,0,0-1.015-1.781,3.21,3.21,0,0,0-2.08-.742,3.074,3.074,0,0,0-3.392,2.7" transform="translate(240.936 522.591)" fill="#3380f5"/>
    <path id="Path_38" data-name="Path 38" d="M52.262,68.456A1.964,1.964,0,0,1,53.55,70.2a1.491,1.491,0,0,1-.322.953,1.02,1.02,0,0,1-.842.41,1.559,1.559,0,0,1-.644-.113,2.3,2.3,0,0,1-.482-.3,3.7,3.7,0,0,0-.459-.31,3.315,3.315,0,0,0-.73-.223,4.119,4.119,0,0,0-.781-.1,3.745,3.745,0,0,0-2.909,1.15,4.732,4.732,0,0,0,.012,5.969,3.507,3.507,0,0,0,2.722,1.177,4.245,4.245,0,0,0,1.81-.3,3.621,3.621,0,0,0,.408-.26,2.731,2.731,0,0,1,.484-.285,1.315,1.315,0,0,1,.543-.1,1.252,1.252,0,0,1,.978.4A1.378,1.378,0,0,1,53,80.4a5.411,5.411,0,0,1-1.832.83,9.25,9.25,0,0,1-2.427.308,6.288,6.288,0,0,1-3.355-.89,5.986,5.986,0,0,1-2.24-2.466,7.682,7.682,0,0,1-.793-3.5,7.453,7.453,0,0,1,.83-3.565A6.1,6.1,0,0,1,45.5,68.677,6.488,6.488,0,0,1,48.87,67.8a7.489,7.489,0,0,1,3.392.658" transform="translate(247.132 522.591)" fill="#3380f5"/>
    <path id="Path_39" data-name="Path 39" d="M57.585,79.953a1.312,1.312,0,0,1,.285.879,1.326,1.326,0,0,1-.73,1.127,3.045,3.045,0,0,1-1.648.457,4.794,4.794,0,0,1-2.587-.656q-1.055-.657-1.053-2.786V72.141H50.715a1.355,1.355,0,0,1-1.388-1.388,1.272,1.272,0,0,1,.4-.953,1.364,1.364,0,0,1,.992-.383h1.138V67.831a1.484,1.484,0,0,1,1.511-1.511,1.4,1.4,0,0,1,1.041.434,1.486,1.486,0,0,1,.42,1.076v1.586h1.759A1.35,1.35,0,0,1,57.969,70.8a1.272,1.272,0,0,1-.4.953,1.364,1.364,0,0,1-.99.385H54.824v6.711a.944.944,0,0,0,.273.754,1.09,1.09,0,0,0,.742.236,2.149,2.149,0,0,0,.545-.1,1.481,1.481,0,0,1,.57-.123.821.821,0,0,1,.631.332" transform="translate(252.42 521.47)" fill="#3380f5"/>
    <path id="Path_40" data-name="Path 40" d="M56,68.025a1.165,1.165,0,0,1-.348-.967v-.471a1.123,1.123,0,0,1,.373-.965,2.779,2.779,0,0,1,2.4,0,1.161,1.161,0,0,1,.348.965v.471a1.142,1.142,0,0,1-.359.978,2.164,2.164,0,0,1-1.228.26A1.966,1.966,0,0,1,56,68.025m2.277,14.7a1.527,1.527,0,0,1-2.13,0,1.483,1.483,0,0,1-.42-1.078V71.415a1.479,1.479,0,0,1,.42-1.076,1.527,1.527,0,0,1,2.13,0,1.479,1.479,0,0,1,.42,1.076V81.643a1.483,1.483,0,0,1-.42,1.078" transform="translate(257.216 520.733)" fill="#3380f5"/>
    <path id="Path_41" data-name="Path 41" d="M70.656,68.348a1.275,1.275,0,0,1,.4.953,1.951,1.951,0,0,1-.2.742l-4.632,10.2a1.535,1.535,0,0,1-.506.668,1.374,1.374,0,0,1-.756.273l-.223.023a1.3,1.3,0,0,1-.779-.259,1.707,1.707,0,0,1-.557-.705l-4.606-10.2a1.951,1.951,0,0,1-.174-.791,1.234,1.234,0,0,1,.422-.9,1.43,1.43,0,0,1,1.039-.408,1.6,1.6,0,0,1,.867.246,1.524,1.524,0,0,1,.594.695L64.96,76.7l3.392-7.8a1.654,1.654,0,0,1,.545-.718,1.17,1.17,0,0,1,.769-.223,1.364,1.364,0,0,1,.99.385" transform="translate(259.469 522.699)" fill="#3380f5"/>
    <path id="Path_42" data-name="Path 42" d="M67.234,68.025a1.165,1.165,0,0,1-.348-.967v-.471a1.123,1.123,0,0,1,.373-.965,2.779,2.779,0,0,1,2.4,0,1.161,1.161,0,0,1,.348.965v.471a1.141,1.141,0,0,1-.359.978,2.164,2.164,0,0,1-1.228.26,1.966,1.966,0,0,1-1.187-.271m2.277,14.7a1.527,1.527,0,0,1-2.13,0,1.483,1.483,0,0,1-.42-1.078V71.415a1.479,1.479,0,0,1,.42-1.076,1.527,1.527,0,0,1,2.13,0,1.479,1.479,0,0,1,.42,1.076V81.643a1.483,1.483,0,0,1-.42,1.078" transform="translate(265.74 520.733)" fill="#3380f5"/>
    <path id="Path_43" data-name="Path 43" d="M77.9,79.953a1.312,1.312,0,0,1,.285.879,1.326,1.326,0,0,1-.73,1.127,3.045,3.045,0,0,1-1.648.457,4.794,4.794,0,0,1-2.587-.656q-1.055-.657-1.053-2.786V72.141H71.034a1.355,1.355,0,0,1-1.388-1.388,1.272,1.272,0,0,1,.4-.953,1.364,1.364,0,0,1,.992-.383h1.138V67.831a1.484,1.484,0,0,1,1.511-1.511,1.4,1.4,0,0,1,1.041.434,1.486,1.486,0,0,1,.42,1.076v1.586H76.9A1.35,1.35,0,0,1,78.288,70.8a1.272,1.272,0,0,1-.4.953,1.364,1.364,0,0,1-.99.385H75.143v6.711a.944.944,0,0,0,.273.754,1.09,1.09,0,0,0,.742.236,2.149,2.149,0,0,0,.545-.1,1.481,1.481,0,0,1,.57-.123.821.821,0,0,1,.631.332" transform="translate(267.834 521.47)" fill="#3380f5"/>
    <path id="Path_44" data-name="Path 44" d="M87.006,68.373a1.486,1.486,0,0,1,.42,1.076V79.974q0,3.218-1.734,4.694a6.913,6.913,0,0,1-4.63,1.474A11.36,11.36,0,0,1,79.342,86a6.416,6.416,0,0,1-1.424-.359q-1.213-.52-1.213-1.437a1.288,1.288,0,0,1,.074-.4,1.534,1.534,0,0,1,.508-.828,1.229,1.229,0,0,1,.781-.285,1.483,1.483,0,0,1,.47.074q.174.076.607.248a6.119,6.119,0,0,0,.916.285,4.468,4.468,0,0,0,1,.113,3.762,3.762,0,0,0,2.589-.756,3.383,3.383,0,0,0,.828-2.589v-.246a4.828,4.828,0,0,1-4.011,1.609,4.284,4.284,0,0,1-2.277-.607,4.08,4.08,0,0,1-1.535-1.685,5.369,5.369,0,0,1-.545-2.462V69.449a1.486,1.486,0,0,1,.42-1.076,1.527,1.527,0,0,1,2.13,0,1.48,1.48,0,0,1,.422,1.076V75.79a3.088,3.088,0,0,0,.681,2.24,2.7,2.7,0,0,0,1.994.681,2.593,2.593,0,0,0,1.993-.756,3.051,3.051,0,0,0,.705-2.165V69.449a1.48,1.48,0,0,1,.422-1.076,1.527,1.527,0,0,1,2.13,0" transform="translate(272.738 522.699)" fill="#3380f5"/>
    <path id="Path_45" data-name="Path 45" d="M100.426,68.222a1.472,1.472,0,0,1,.42,1.089V79.785a1.49,1.49,0,0,1-.42,1.078,1.53,1.53,0,0,1-2.119.012,1.549,1.549,0,0,1-.431-1.066,5.359,5.359,0,0,1-3.89,1.734,5.644,5.644,0,0,1-3.093-.879A6.147,6.147,0,0,1,88.7,78.225a7.62,7.62,0,0,1-.805-3.542,7.789,7.789,0,0,1,.791-3.552,6.1,6.1,0,0,1,2.167-2.453,5.523,5.523,0,0,1,3.034-.879,5.754,5.754,0,0,1,2.23.434,5.86,5.86,0,0,1,1.759,1.1V69.31a1.477,1.477,0,0,1,.422-1.078A1.417,1.417,0,0,1,99.36,67.8a1.436,1.436,0,0,1,1.066.424m-3.443,9.421A4.358,4.358,0,0,0,98,74.683a4.4,4.4,0,0,0-1.018-2.97,3.465,3.465,0,0,0-5.225,0,4.866,4.866,0,0,0-.011,5.93,3.265,3.265,0,0,0,2.61,1.177,3.306,3.306,0,0,0,2.626-1.177" transform="translate(281.678 522.591)" fill="#3380f5"/>
    <path id="Path_46" data-name="Path 46" d="M107.666,69.3a7.627,7.627,0,0,1,.965,4.147v6.34a1.484,1.484,0,0,1-.422,1.078,1.527,1.527,0,0,1-2.13,0,1.49,1.49,0,0,1-.42-1.078v-6.34a3.587,3.587,0,0,0-.568-2.14,2.27,2.27,0,0,0-1.959-.781,3.011,3.011,0,0,0-2.253.83,2.861,2.861,0,0,0-.816,2.091v6.34a1.49,1.49,0,0,1-.42,1.078,1.529,1.529,0,0,1-2.131,0,1.491,1.491,0,0,1-.422-1.078V69.557a1.487,1.487,0,0,1,.422-1.076,1.529,1.529,0,0,1,2.131,0,1.486,1.486,0,0,1,.42,1.076v.422a5.984,5.984,0,0,1,1.743-1.535,4.542,4.542,0,0,1,2.367-.645,3.835,3.835,0,0,1,3.493,1.5" transform="translate(288.653 522.591)" fill="#3380f5"/>
    <path id="Path_47" data-name="Path 47" d="M117.593,65.473a1.488,1.488,0,0,1,.419,1.09v15.3a1.5,1.5,0,0,1-.419,1.078,1.43,1.43,0,0,1-1.067.433,1.411,1.411,0,0,1-1.053-.42,1.549,1.549,0,0,1-.431-1.066,5.359,5.359,0,0,1-3.89,1.734,5.644,5.644,0,0,1-3.093-.879,6.148,6.148,0,0,1-2.191-2.439,7.62,7.62,0,0,1-.805-3.542,7.789,7.789,0,0,1,.791-3.552,6.112,6.112,0,0,1,2.167-2.453,5.528,5.528,0,0,1,3.034-.879,5.754,5.754,0,0,1,2.23.434,5.86,5.86,0,0,1,1.759,1.1V66.564a1.474,1.474,0,0,1,.422-1.078,1.416,1.416,0,0,1,1.062-.433,1.447,1.447,0,0,1,1.067.42m-3.443,14.252a4.366,4.366,0,0,0,1.016-2.96,4.412,4.412,0,0,0-1.016-2.97,3.467,3.467,0,0,0-5.227,0,4.866,4.866,0,0,0-.011,5.93,3.268,3.268,0,0,0,2.612,1.176,3.311,3.311,0,0,0,2.626-1.176" transform="translate(294.7 520.509)" fill="#3380f5"/>
    <path id="Path_48" data-name="Path 48" d="M131.615,67.775a1.67,1.67,0,0,1-.371,1.015,1.225,1.225,0,0,1-1.016.521,1.771,1.771,0,0,1-.841-.223,6.106,6.106,0,0,0-2.626-.568,6.037,6.037,0,0,0-3.021.73,4.948,4.948,0,0,0-1.98,2.056,6.439,6.439,0,0,0-.695,3.032,5.858,5.858,0,0,0,1.574,4.433,6.363,6.363,0,0,0,6.748.941,1.988,1.988,0,0,1,.791-.2,1.362,1.362,0,0,1,1.09.543,1.608,1.608,0,0,1,.371,1.016,1.324,1.324,0,0,1-.2.718,1.286,1.286,0,0,1-.568.5,9.079,9.079,0,0,1-4.112.965,9.732,9.732,0,0,1-4.456-1.027,7.9,7.9,0,0,1-3.245-3.035,9.185,9.185,0,0,1-1.213-4.854A8.935,8.935,0,0,1,119,69.8a8.19,8.19,0,0,1,3.181-3.132,9.284,9.284,0,0,1,4.581-1.127,8.814,8.814,0,0,1,4.085.967,1.328,1.328,0,0,1,.769,1.263" transform="translate(304.4 520.882)" fill="#3380f5"/>
    <path id="Path_49" data-name="Path 49" d="M129.707,82.945a1.468,1.468,0,0,1-1.078.433,1.4,1.4,0,0,1-1.039-.433,1.483,1.483,0,0,1-.42-1.078v-15.3a1.478,1.478,0,0,1,1.511-1.511,1.4,1.4,0,0,1,1.039.433,1.481,1.481,0,0,1,.422,1.078v15.3a1.466,1.466,0,0,1-.434,1.078" transform="translate(311.471 520.509)" fill="#3380f5"/>
    <path id="Path_50" data-name="Path 50" d="M142.847,78.237a6.31,6.31,0,0,1-2.441,2.441,7.156,7.156,0,0,1-6.822,0,6.323,6.323,0,0,1-2.427-2.441,7.526,7.526,0,0,1,0-7.107,6.415,6.415,0,0,1,2.427-2.453,7.055,7.055,0,0,1,6.822,0,6.4,6.4,0,0,1,2.441,2.453,7.526,7.526,0,0,1,0,7.107m-2.589-5.721a3.743,3.743,0,0,0-1.361-1.474,3.72,3.72,0,0,0-3.79,0,3.747,3.747,0,0,0-1.363,1.474,4.544,4.544,0,0,0-.507,2.167,4.47,4.47,0,0,0,.507,2.154,3.76,3.76,0,0,0,1.363,1.461,3.709,3.709,0,0,0,3.79,0,3.756,3.756,0,0,0,1.361-1.461,4.471,4.471,0,0,0,.508-2.154,4.545,4.545,0,0,0-.508-2.167" transform="translate(313.821 522.591)" fill="#3380f5"/>
    <path id="Path_51" data-name="Path 51" d="M150.231,68.373a1.486,1.486,0,0,1,.42,1.076v6.291a5.738,5.738,0,0,1-1.474,4.185,6.568,6.568,0,0,1-8.382,0,5.769,5.769,0,0,1-1.461-4.185V69.449a1.486,1.486,0,0,1,.42-1.076,1.527,1.527,0,0,1,2.13,0,1.48,1.48,0,0,1,.422,1.076v6.291a3.239,3.239,0,0,0,.668,2.242,2.592,2.592,0,0,0,2.007.73,2.623,2.623,0,0,0,2.029-.73,3.23,3.23,0,0,0,.668-2.242V69.449a1.48,1.48,0,0,1,.422-1.076,1.527,1.527,0,0,1,2.13,0" transform="translate(320.701 522.699)" fill="#3380f5"/>
    <path id="Path_52" data-name="Path 52" d="M159.71,65.473a1.482,1.482,0,0,1,.42,1.09v15.3a1.49,1.49,0,0,1-.42,1.078,1.426,1.426,0,0,1-1.066.433,1.408,1.408,0,0,1-1.053-.42,1.558,1.558,0,0,1-.433-1.066,5.351,5.351,0,0,1-3.888,1.734,5.65,5.65,0,0,1-3.1-.879,6.147,6.147,0,0,1-2.191-2.439,7.619,7.619,0,0,1-.805-3.542,7.768,7.768,0,0,1,.793-3.552,6.086,6.086,0,0,1,2.167-2.453,5.519,5.519,0,0,1,3.034-.879,5.745,5.745,0,0,1,2.228.434,5.86,5.86,0,0,1,1.759,1.1V66.564a1.481,1.481,0,0,1,.422-1.078,1.419,1.419,0,0,1,1.064-.433,1.443,1.443,0,0,1,1.066.42m-3.443,14.252a4.365,4.365,0,0,0,1.016-2.96,4.412,4.412,0,0,0-1.016-2.97,3.465,3.465,0,0,0-5.225,0,4.863,4.863,0,0,0-.012,5.93,3.268,3.268,0,0,0,2.612,1.176,3.306,3.306,0,0,0,2.626-1.176" transform="translate(326.65 520.509)" fill="#3380f5"/>
    <path id="Path_53" data-name="Path 53" d="M163.232,82.861a7.354,7.354,0,0,1-2.6-1.511,1.74,1.74,0,0,1-.667-1.312,1.4,1.4,0,0,1,.42-1A1.368,1.368,0,0,1,161.4,78.6a1.313,1.313,0,0,1,.842.3,7.311,7.311,0,0,0,1.931,1.189,6.091,6.091,0,0,0,2.23.371,4.447,4.447,0,0,0,2.39-.621,1.791,1.791,0,0,0,1-1.535,1.966,1.966,0,0,0-.992-1.745,8.4,8.4,0,0,0-3.144-.953q-5.424-.794-5.424-5.052a4.565,4.565,0,0,1,.818-2.712,5.156,5.156,0,0,1,2.228-1.759,7.891,7.891,0,0,1,3.146-.607,9.013,9.013,0,0,1,2.933.471,7.155,7.155,0,0,1,2.291,1.238,1.654,1.654,0,0,1,.717,1.312,1.4,1.4,0,0,1-.42,1,1.336,1.336,0,0,1-.99.434,1.1,1.1,0,0,1-.67-.223,6.58,6.58,0,0,0-1.794-.953,5.974,5.974,0,0,0-2.068-.434,4.282,4.282,0,0,0-2.415.582,1.849,1.849,0,0,0,.025,3.134,8.29,8.29,0,0,0,2.761.892,14.317,14.317,0,0,1,3.4.955,4.339,4.339,0,0,1,1.919,1.583,4.881,4.881,0,0,1,.644,2.664,4.448,4.448,0,0,1-.878,2.735,5.654,5.654,0,0,1-2.341,1.808,7.823,7.823,0,0,1-3.144.631,10.352,10.352,0,0,1-3.171-.445" transform="translate(336.35 520.829)" fill="#3380f5"/>
    <path id="Path_54" data-name="Path 54" d="M180.881,78.237a6.31,6.31,0,0,1-2.441,2.441,7.156,7.156,0,0,1-6.822,0,6.323,6.323,0,0,1-2.427-2.441,7.526,7.526,0,0,1,0-7.107,6.416,6.416,0,0,1,2.427-2.453,7.055,7.055,0,0,1,6.822,0,6.4,6.4,0,0,1,2.441,2.453,7.526,7.526,0,0,1,0,7.107m-2.589-5.721a3.743,3.743,0,0,0-1.361-1.474,3.72,3.72,0,0,0-3.79,0,3.747,3.747,0,0,0-1.363,1.474,4.544,4.544,0,0,0-.506,2.167,4.47,4.47,0,0,0,.506,2.154,3.76,3.76,0,0,0,1.363,1.461,3.709,3.709,0,0,0,3.79,0,3.756,3.756,0,0,0,1.361-1.461,4.471,4.471,0,0,0,.508-2.154,4.545,4.545,0,0,0-.508-2.167" transform="translate(342.674 522.591)" fill="#3380f5"/>
    <path id="Path_55" data-name="Path 55" d="M180.048,82.945a1.468,1.468,0,0,1-1.078.433,1.4,1.4,0,0,1-1.039-.433,1.483,1.483,0,0,1-.42-1.078v-15.3a1.478,1.478,0,0,1,1.511-1.511,1.4,1.4,0,0,1,1.039.433,1.481,1.481,0,0,1,.422,1.078v15.3a1.466,1.466,0,0,1-.434,1.078" transform="translate(349.66 520.509)" fill="#3380f5"/>
    <path id="Path_56" data-name="Path 56" d="M192,68.373a1.486,1.486,0,0,1,.42,1.076v6.291a5.738,5.738,0,0,1-1.474,4.185,6.568,6.568,0,0,1-8.382,0,5.769,5.769,0,0,1-1.461-4.185V69.449a1.486,1.486,0,0,1,.42-1.076,1.527,1.527,0,0,1,2.13,0,1.48,1.48,0,0,1,.422,1.076v6.291a3.239,3.239,0,0,0,.668,2.242,2.592,2.592,0,0,0,2.007.73,2.623,2.623,0,0,0,2.029-.73,3.23,3.23,0,0,0,.668-2.242V69.449a1.48,1.48,0,0,1,.422-1.076,1.527,1.527,0,0,1,2.13,0" transform="translate(352.384 522.699)" fill="#3380f5"/>
    <path id="Path_57" data-name="Path 57" d="M196.919,79.953a1.312,1.312,0,0,1,.285.879,1.326,1.326,0,0,1-.73,1.127,3.046,3.046,0,0,1-1.648.457,4.794,4.794,0,0,1-2.587-.656q-1.055-.657-1.053-2.786V72.141h-1.138a1.355,1.355,0,0,1-1.388-1.388,1.272,1.272,0,0,1,.4-.953,1.363,1.363,0,0,1,.992-.383h1.138V67.831A1.484,1.484,0,0,1,192.7,66.32a1.4,1.4,0,0,1,1.041.434,1.486,1.486,0,0,1,.42,1.076v1.586h1.759A1.35,1.35,0,0,1,197.3,70.8a1.272,1.272,0,0,1-.4.953,1.364,1.364,0,0,1-.99.385h-1.759v6.711a.944.944,0,0,0,.273.754,1.09,1.09,0,0,0,.742.236,2.148,2.148,0,0,0,.545-.1,1.481,1.481,0,0,1,.57-.123.821.821,0,0,1,.631.332" transform="translate(358.12 521.47)" fill="#3380f5"/>
    <path id="Path_58" data-name="Path 58" d="M195.332,68.025a1.165,1.165,0,0,1-.348-.967v-.471a1.123,1.123,0,0,1,.373-.965,2.779,2.779,0,0,1,2.4,0,1.161,1.161,0,0,1,.348.965v.471a1.141,1.141,0,0,1-.359.978,2.164,2.164,0,0,1-1.227.26,1.966,1.966,0,0,1-1.187-.271m2.277,14.7a1.527,1.527,0,0,1-2.13,0,1.483,1.483,0,0,1-.42-1.078V71.415a1.479,1.479,0,0,1,.42-1.076,1.527,1.527,0,0,1,2.13,0,1.479,1.479,0,0,1,.42,1.076V81.643a1.483,1.483,0,0,1-.42,1.078" transform="translate(362.916 520.733)" fill="#3380f5"/>
    <path id="Path_59" data-name="Path 59" d="M210.608,78.237a6.322,6.322,0,0,1-2.441,2.441,7.156,7.156,0,0,1-6.822,0,6.311,6.311,0,0,1-2.427-2.441,7.513,7.513,0,0,1,0-7.107,6.4,6.4,0,0,1,2.427-2.453,7.055,7.055,0,0,1,6.822,0,6.414,6.414,0,0,1,2.441,2.453,7.526,7.526,0,0,1,0,7.107m-2.589-5.721a3.743,3.743,0,0,0-1.361-1.474,3.72,3.72,0,0,0-3.79,0,3.735,3.735,0,0,0-1.363,1.474A4.545,4.545,0,0,0,201,74.683a4.471,4.471,0,0,0,.508,2.154,3.747,3.747,0,0,0,1.363,1.461,3.709,3.709,0,0,0,3.79,0,3.756,3.756,0,0,0,1.361-1.461,4.471,4.471,0,0,0,.508-2.154,4.545,4.545,0,0,0-.508-2.167" transform="translate(365.223 522.591)" fill="#3380f5"/>
    <path id="Path_60" data-name="Path 60" d="M217.669,69.3a7.611,7.611,0,0,1,.965,4.147v6.34a1.49,1.49,0,0,1-.42,1.078,1.527,1.527,0,0,1-2.13,0,1.484,1.484,0,0,1-.422-1.078v-6.34a3.575,3.575,0,0,0-.568-2.14,2.266,2.266,0,0,0-1.957-.781,3.011,3.011,0,0,0-2.253.83,2.856,2.856,0,0,0-.818,2.091v6.34a1.49,1.49,0,0,1-.42,1.078,1.527,1.527,0,0,1-2.13,0,1.484,1.484,0,0,1-.422-1.078V69.557a1.48,1.48,0,0,1,.422-1.076,1.527,1.527,0,0,1,2.13,0,1.486,1.486,0,0,1,.42,1.076v.422a5.969,5.969,0,0,1,1.745-1.535,4.532,4.532,0,0,1,2.365-.645,3.835,3.835,0,0,1,3.493,1.5" transform="translate(372.103 522.591)" fill="#3380f5"/>
    <path id="Path_61" data-name="Path 61" d="M214.923,78.5a1.3,1.3,0,0,1,.644-1.09,1.322,1.322,0,0,1,.718-.223,1.4,1.4,0,0,1,.992.471,5.25,5.25,0,0,0,1.548,1.14,4.6,4.6,0,0,0,1.943.371q1.934-.074,1.931-1.461a1.179,1.179,0,0,0-.656-1.089A9.146,9.146,0,0,0,220,75.872a17.892,17.892,0,0,1-2.341-.791,4.127,4.127,0,0,1-1.56-1.2,3.323,3.323,0,0,1-.656-2.165,3.275,3.275,0,0,1,.681-2.068,4.483,4.483,0,0,1,1.783-1.363,5.761,5.761,0,0,1,2.339-.484,7.214,7.214,0,0,1,2.527.471,4.383,4.383,0,0,1,1.98,1.388,1.375,1.375,0,0,1,.322.89,1.154,1.154,0,0,1-.47.943,1.251,1.251,0,0,1-.793.273,1.213,1.213,0,0,1-.892-.346,3.162,3.162,0,0,0-1.15-.869,3.817,3.817,0,0,0-1.6-.322q-1.881,0-1.882,1.363a1.158,1.158,0,0,0,.346.878,2.361,2.361,0,0,0,.879.521c.355.125.855.276,1.5.459a16.383,16.383,0,0,1,2.228.767,3.827,3.827,0,0,1,1.511,1.215,3.47,3.47,0,0,1,.619,2.154,3.31,3.31,0,0,1-.718,2.117,4.547,4.547,0,0,1-1.845,1.373,5.934,5.934,0,0,1-2.316.47A8.392,8.392,0,0,1,217.45,81a5.05,5.05,0,0,1-2.3-1.759,1.193,1.193,0,0,1-.223-.742" transform="translate(378.042 522.591)" fill="#3380f5"/>
    <rect id="Rectangle_10" data-name="Rectangle 10" width="656.963" height="137.68" transform="translate(215 471.16)" fill="none"/>
  </g>
</svg>
